<svg xmlns="http://www.w3.org/2000/svg" width="58.684" height="58.684" viewBox="0 0 58.684 58.684">
  <path id="visao" d="M26.61,19.838a11.794,11.794,0,0,1-10.962,7.549.979.979,0,0,1,0-1.957,9.829,9.829,0,0,0,9.135-6.288.978.978,0,1,1,1.827.7m-.2-3.12a.98.98,0,0,0,.978-.979v-.09a.941.941,0,0,0-.978-.934,1.018,1.018,0,0,0-.978,1.023.98.98,0,0,0,.978.979m7.734,35a.978.978,0,0,0,.5-1.821c-2.743-1.607-4.318-4.819-4.318-8.813V39.123a.978.978,0,0,0-1.955,0v1.955c0,4.708,1.925,8.536,5.284,10.5a.982.982,0,0,0,.494.134m22.587.564v.539h.978a.978.978,0,0,1,.978.978v3.912a.978.978,0,0,1-1.955,0V54.772H35.211v2.935a.979.979,0,0,1-1.957,0V53.794a.978.978,0,0,1,.978-.978h20.54V51.658a.976.976,0,0,1,.65-.92A1.962,1.962,0,0,0,56.729,48.9V31.3a1.957,1.957,0,1,0-3.914,0,.978.978,0,0,1-1.955,0V29.342a1.956,1.956,0,0,0-3.912,0,.979.979,0,0,1-1.957,0V27.387a1.956,1.956,0,1,0-3.912,0,.978.978,0,1,1-1.955,0V25.43a1.956,1.956,0,1,0-3.912,0V41.078a.979.979,0,1,1-1.957,0V38.787l-5.7-5.7a3.87,3.87,0,0,1-.593-4.742l-.976-.976a15.7,15.7,0,1,1,1.383-1.383l.976.976a3.87,3.87,0,0,1,4.742.593l.168.168V25.43a3.914,3.914,0,0,1,7.606-1.3,3.91,3.91,0,0,1,5.867,1.957A3.913,3.913,0,0,1,52.6,28.045,3.91,3.91,0,0,1,58.684,31.3V48.9a3.915,3.915,0,0,1-1.955,3.375M15.649,29.342A13.693,13.693,0,1,0,1.955,15.649,13.711,13.711,0,0,0,15.649,29.342M33.254,36.02V30.488L31.7,28.936A1.956,1.956,0,1,0,28.936,31.7Z" 
  fill="#fff"/>
</svg>
